<svg text-rendering="geometricPrecision" shape-rendering="geometricPrecision" viewBox="0 0 160 160" xmlns:xlink="http://www.w3.org/1999/xlink" xmlns="http://www.w3.org/2000/svg" id="eeluDoT6dng1">
<style>
#eeluDoT6dng42_to {animation: eeluDoT6dng42_to__to 3200ms linear infinite normal forwards}@keyframes eeluDoT6dng42_to__to { 0% {transform: translate(78.7615px,98.6864px)} 3.125% {transform: translate(78.7615px,98.6864px)} 28.125% {transform: translate(78.7615px,95.087984px)} 53.125% {transform: translate(78.7615px,98.6864px)} 78.125% {transform: translate(78.7615px,95.087984px)} 100% {transform: translate(78.7615px,98.6864px)}} #eeluDoT6dng42_tr {animation: eeluDoT6dng42_tr__tr 3200ms linear infinite normal forwards}@keyframes eeluDoT6dng42_tr__tr { 0% {transform: rotate(-4.121746deg)} 25% {transform: rotate(0.899008deg)} 50% {transform: rotate(-4.121746deg)} 75% {transform: rotate(0.899008deg)} 96.875% {transform: rotate(-4.121746deg)} 100% {transform: rotate(-4.121746deg)}} #eeluDoT6dng47_to {animation: eeluDoT6dng47_to__to 3200ms linear infinite normal forwards}@keyframes eeluDoT6dng47_to__to { 0% {transform: translate(100.5405px,93.100617px)} 100% {transform: translate(11.438279px,83.615971px)}} #eeluDoT6dng162_to {animation: eeluDoT6dng162_to__to 3200ms linear infinite normal forwards}@keyframes eeluDoT6dng162_to__to { 0% {offset-distance: 0%} 25% {offset-distance: 25.249724%} 50% {offset-distance: 50.44349%} 75% {offset-distance: 75.251712%} 100% {offset-distance: 100%}} #eeluDoT6dng162_tr {animation: eeluDoT6dng162_tr__tr 3200ms linear infinite normal forwards}@keyframes eeluDoT6dng162_tr__tr { 0% {transform: rotate(-19.041669deg)} 25% {transform: rotate(-1.307254deg)} 50% {transform: rotate(-19.041669deg)} 75% {transform: rotate(-1.307254deg)} 100% {transform: rotate(-19.041669deg)}} #eeluDoT6dng176_ts {animation: eeluDoT6dng176_ts__ts 3200ms linear infinite normal forwards}@keyframes eeluDoT6dng176_ts__ts { 0% {transform: translate(51.961901px,60.49345px) scale(0,0)} 15.625% {transform: translate(51.961901px,60.49345px) scale(0,0);animation-timing-function: cubic-bezier(0.49,0,0.485,0.99)} 28.125% {transform: translate(51.961901px,60.49345px) scale(1,1);animation-timing-function: cubic-bezier(0.49,0,0.485,0.99)} 40.625% {transform: translate(51.961901px,60.49345px) scale(0,0)} 100% {transform: translate(51.961901px,60.49345px) scale(0,0)}} #eeluDoT6dng177_ts {animation: eeluDoT6dng177_ts__ts 3200ms linear infinite normal forwards}@keyframes eeluDoT6dng177_ts__ts { 0% {transform: translate(105.090942px,57.799062px) rotate(39.533116deg) scale(0,0)} 65.625% {transform: translate(105.090942px,57.799062px) rotate(39.533116deg) scale(0,0);animation-timing-function: cubic-bezier(0.49,0,0.485,0.99)} 78.125% {transform: translate(105.090942px,57.799062px) rotate(39.533116deg) scale(1,1);animation-timing-function: cubic-bezier(0.49,0,0.485,0.99)} 90.625% {transform: translate(105.090942px,57.799062px) rotate(39.533116deg) scale(0,0)} 100% {transform: translate(105.090942px,57.799062px) rotate(39.533116deg) scale(0,0)}}
</style>
<path stroke="#201c1a" fill="#daaeea" d="M80,0.5c43.907,0,79.5,35.5934,79.5,79.5c0,43.907-35.593,79.5-79.5,79.5-43.9066,0-79.5-35.593-79.5-79.5C0.5,36.0934,36.0934,0.5,80,0.5Z"></path><g><path stroke="#201c1a" fill="#201c1a" d="M19.4019,66.699c1.1052-.3543,2.3241-.43,3.6669-.2403v-.0009c1.3251.1894,2.4868.6097,3.4678,1.2636.9824.655,1.6974,1.4717,2.1592,2.4512.457.9694.6013,2.0436.4307,3.2236l-.001.001-.5557,3.9278-13.7763-1.9668.5576-3.9395c.1708-1.1816.608-2.1712,1.3144-2.9746.6267-.7127,1.3912-1.2534,2.3203-1.6045l.4082-.1387.0079-.0019ZM22.77,68.6414c-1.0683-.1595-2.0236-.1462-2.8467.0019l-.0097.002c-.8415.1683-1.5317.5131-2.0557,1.0371-.5292.5293-.8301,1.1983-.9346,1.9609l-.1826,1.2969-.0703.4941.4942.0703l9.6855,1.3887.4961.0703.0703-.4961.1826-1.2959v-.0029c.1037-.7603.0023-1.4825-.3633-2.1406l-.1425-.2569h-.0323c-.3649-.5338-.8898-.9692-1.5371-1.3144-.7507-.4003-1.6787-.6723-2.7549-.8154h.001Z"></path><path stroke="#201c1a" fill="#201c1a" d="M21.3235,55.013L19.677,59.636l-.168.4717.4717.168l3.1719,1.1279.4707.168.168-.4707l1.3877-3.8926l1.4677.5195-1.3877,3.8916-.1679.4717.4726.167l3.6143,1.2813.4717.167.167-.4707l1.6621-4.6856l1.4668.5205-2.5616,7.1875-13.0556-4.6504l2.5283-7.1142l1.4668.5195Z"></path><path stroke="#201c1a" fill="#201c1a" d="M26.9912,44.9745c.6567-.0113,1.3083.1189,1.9766.4112l-.874,1.9658c-.6236-.2725-1.2286-.397-1.7901-.3242-.6922.0749-1.2625.3899-1.6006.9814-.2762.4755-.3455.9814-.1982,1.4864.1492.5115.4887.8755.8974,1.1357l.0088.0059c.4382.2667.9025.3743,1.377.3125h.0029c.4252-.058.8224-.2306,1.1563-.4717.2955-.2135.6927-.5485,1.164-.959l.0078-.0068c.6403-.5807,1.2102-1.0178,1.6954-1.3174.4262-.2633.975-.4148,1.6543-.4287.5472-.0112,1.1885.1539,1.9326.5351l.3252.1768c.5723.3345,1.0011.7457,1.3242,1.2568l.1328.2256c.321.6183.467,1.2863.4131,2.0283v.0088c-.0406.7439-.2844,1.4911-.7256,2.2608-.4827.8234-1.0639,1.4236-1.7647,1.8144l.0049.0127c-.6978.377-1.4554.5596-2.2842.5195h-.0009c-.747-.0356-1.503-.2241-2.2901-.5722l.7989-1.8955c.8123.367,1.561.5524,2.2373.5224h.0117c.8517-.0569,1.5189-.4697,1.9531-1.206v-.001c.3127-.5335.4273-1.1113.2813-1.6748-.1416-.5459-.4876-1.0051-1.0254-1.3135h.0009c-.45-.2625-.9265-.3692-1.3994-.3076-.4411.0575-.8539.2289-1.2334.5-.3452.2317-.7571.5659-1.2275.9756-.665.5742-1.2195,1.0108-1.7031,1.3095l-.0059.004c-.4132.2628-.9332.4128-1.5684.4404-.5703.0248-1.2508-.1731-2.0576-.6485l-.0048-.0029-.2315-.1426c-.5214-.3461-.9131-.7804-1.1934-1.3056-.3228-.6053-.4737-1.268-.4599-1.9981.0134-.7079.2256-1.4022.6162-2.0879.405-.6843.9156-1.2194,1.5449-1.6162.619-.3902,1.3217-.5955,2.1211-.6094Z"></path><path stroke="#201c1a" fill="#201c1a" d="M40.2207,47.5934l-1.3359,1.7002-10.9551-8.5518l1.334-1.6992l10.957,8.5508Z"></path><path stroke="#201c1a" fill="#201c1a" d="M37.7012,30.8654c.8398-.2065,1.6998-.181,2.5879.0586.7339.1981,1.4365.5555,2.1191,1.0801l-1.4873,1.6328c-.6948-.5999-1.4205-.9755-2.1631-1.0684-.8702-.1087-1.661.1301-2.2939.7247-.5418.5043-.8208,1.1289-.875,1.8701l-.001.0117c-.0355.7268.1438,1.4812.5215,2.2695.3778.7885.9439,1.5762,1.6533,2.3487l.0039.0039c.7256.7729,1.4663,1.3893,2.2236,1.8173.7482.4228,1.5048.6748,2.2286.6748.7447,0,1.3832-.2416,1.9199-.7226l.0097-.0088c.6174-.5822.9805-1.3032.9805-2.1484c0-.8109-.2754-1.5484-.835-2.2129l-.3388-.4033-.3848.3593-1.7099,1.5957-1.084-1.1582c.4713-.4054,1.0117-.889,1.6132-1.4433l.002-.002l2.124-1.9795c.1493.1466.3063.3034.4746.4717h.001c.7388.8112,1.2817,1.6862,1.6231,2.625l.0029.0059c.3474.9171.4162,1.8429.2217,2.788-.1873.9095-.7132,1.7836-1.6201,2.6485-.7361.6861-1.5355,1.1168-2.4004,1.3027l-.0098-.0205-.3584.0537c-1.026.1525-2.0768.0027-3.1768-.4687-1.1013-.4721-2.1444-1.2215-3.1425-2.2783-.9952-1.0537-1.6711-2.1531-2.0567-3.2813-.3864-1.1308-.4658-2.1964-.2441-3.208.221-1.0086.7306-1.8954,1.5576-2.6523h.001c.7086-.652,1.474-1.0799,2.3125-1.2862Z"></path><path stroke="#201c1a" fill="#201c1a" d="M58.7869,33.033L56.448,34.3777l-8.9355-6.372-.6631.7412c.2289.2559.7271.9536,1.4941,2.1348.7605,1.1711,1.3956,2.1846,1.8926,3.0429v.001l1.7471,3.0273-1.877,1.0733L43.157,25.9656l2.3008-1.3242l8.8154,6.1494.6396-.7636c-.0873-.0874-.2526-.2941-.5048-.6553-.2457-.3517-.5574-.8257-.9366-1.4248-.7618-1.2038-1.3977-2.2334-1.8798-3.0772l-.001-.0019-1.626-2.8145l1.877-1.0742L58.7869,33.033Z"></path><path stroke="#201c1a" fill="#201c1a" d="M63.7339,18.3488l-4.6494,1.5371-.4737.1562.1553.4736l1.0527,3.2032.1563.4756.4746-.1563l3.9336-1.2939.4941,1.4922-3.917,1.2919-.4746.1573.1573.4746l1.205,3.6455.1563.4746.4746-.1563l4.7119-1.5537.4922,1.4766-7.2393,2.3867-4.3574-13.2139l7.1533-2.3623.4942,1.4913Z"></path><path stroke="#201c1a" fill="#201c1a" d="M71.4111,15.3654c1.1791-.142,2.2547.0293,3.2119.5009.9649.4755,1.7674,1.2041,2.3926,2.1846.6262.9821,1.0306,2.1444,1.1905,3.4814.1598,1.3373.0428,2.5588-.3282,3.6719-.3689,1.1067-.9747,2.0043-1.8017,2.7051-.8178.693-1.8214,1.1157-3,1.2578l-3.9424.4736L67.4824,15.838l3.9287-.4726Zm.4873,1.5263l-.2851.0274-1.2969.1523-.4971.0586.0586.4971l1.1592,9.7168.0596.4951.4961-.0586l1.2959-.1523-.001-.001c.6764-.077,1.273-.3175,1.7744-.7276l.209-.1865.0059-.0058c.5191-.5192.8801-1.2039,1.0654-2.0459.1824-.8295.2108-1.7871.084-2.8653-.1273-1.0819-.384-1.9907-.7471-2.75v-.001l-.0039-.0078c-.3827-.7652-.8854-1.3538-1.5254-1.7197-.5544-.3168-1.1762-.4644-1.8516-.4258Z"></path><path stroke="#201c1a" fill="#201c1a" d="M94.842,16.377l-.2607,1.5469-4.8301-.8027-.4912-.0811-.084.4912-.5644,3.3252-.083.4941.4941.0821l4.0811.6797-.2608,1.5459-4.083-.6797-.4932-.0821-.082.4932-.9707,5.8203-2.125-.3535l2.294-13.7314L94.842,16.377Z"></path><path stroke="#201c1a" fill="#201c1a" d="M100.073,18.5554c.993-.248,2.018-.1826,3.074.2119c1.056.3939,1.868,1.0186,2.446,1.8711.511.7544.825,1.6213.943,2.622l.039.4375c.056,1.1853-.157,2.4565-.67,3.8184-.514,1.3521-1.197,2.4644-2.024,3.3057l-.003.0029c-.826.8545-1.753,1.3968-2.751,1.6465-.992.248-2.0156.1818-3.0694-.2256l-.0058-.002c-1.055-.3939-1.8679-1.0187-2.4454-1.8711l-.1543-.2265c-.485-.7958-.763-1.7368-.8281-2.8174-.0711-1.1801.1547-2.4521.6699-3.8213.5143-1.3511,1.1979-2.4619,2.0245-3.3027.845-.8594,1.7585-1.4004,2.7546-1.6494Zm2.531,1.6875c-.677-.2633-1.393-.2411-2.073.0527-.6612.286-1.258.7911-1.7966,1.4766l-.0039.0058c-.5243.6881-.9728,1.5417-1.3506,2.5176v.0029c-.3772.9901-.6067,1.923-.6572,2.794-.0655.867.0452,1.6477.3691,2.2988v.001c.3273.6728.8325,1.1461,1.5039,1.4072.6771.2633,1.3937.2411,2.0733-.0527.661-.2861,1.257-.7921,1.796-1.4776l.005-.0058c.524-.6881.972-1.5418,1.349-2.5176l.001-.002c.381-.9999.591-1.9317.657-2.7939.065-.8697-.046-1.6533-.373-2.3057-.327-.67-.831-1.1409-1.5-1.4013Z"></path><path stroke="#201c1a" fill="#201c1a" d="M115.267,25.1591c.693.4526,1.255,1.0002,1.689,1.6289v.0009c.422.6261.637,1.2864.678,2.0059.038.6798-.163,1.3688-.622,2.0928-.442.6774-.962,1.1211-1.568,1.3662-.615.2485-1.227.2845-1.872.0781l-.5.8359c.378.365.514.7241.504,1.0596-.012.4073-.151.8988-.436,1.4688l-.006.0136-.006.0137c-.042.0961-.09.2005-.149.3154l-.206.378-.005.0097c-.431.7865-.758,1.439-.993,1.9561-.131.2892-.236.5807-.313.8721l-1.96-1.2754c.071-.1697.152-.3426.243-.5157l.004-.0087c.16-.3207.351-.6609.563-1.0245.18-.2989.35-.5941.493-.8789l.001.001c.163-.292.307-.5993.436-.9209l.001.001c.258-.62.342-1.2497.11-1.8389-.214-.5447-.628-.9988-1.176-1.3594h.001l-.335-.2285-.422-.2881-.28.4288-2.93,4.5068-1.815-1.1787l7.594-11.6475l3.277,2.1319Zm-2.587.7871l-2.135,3.2793-.273.4189.419.2734l1.052.6856.003.0019c.566.3654,1.161.4991,1.772.3565l.386-.0899v-.0615c.441-.2025.807-.5519,1.103-.9824l.007-.0117c.385-.5951.556-1.2073.455-1.8311l-.001-.0078-.001-.0078-.056-.2256c-.155-.5146-.484-.9335-.988-1.2588h-.001l-1.049-.6845-.419-.2735-.274.419Z"></path><path stroke="#201c1a" fill="#201c1a" d="M131.963,40.4568l-1.181,1.0234-3.196-3.7217-.325-.3789-.379.3252-2.562,2.1963-.381.3262.327.3799l2.692,3.1279-1.177,1.0117-2.695-3.1299-.325-.3779-.379.3252-2.913,2.501-.38.3262.327.3798l3.242,3.7686-1.179,1.0117-4.976-5.7861l10.527-9.0498l4.933,5.7412Z"></path><path stroke="#201c1a" fill="#201c1a" d="M127.481,59.8189l-1.111-1.9795l1.907-1.7871.417.7451.243.4356.436-.2432l2.242-1.251.351-.1963-4.485,4.2764Zm3.209-4.709l-1.368.7637-.294-.5254l1.177-1.1045.485.8662Zm7.176-5.1924l-5.827,5.5557-.231-.415-.851-1.5186l4.173-3.9121-.475-.8467-5.509,1.5244-.831-1.4853-.143-.2559h-.439l-.115.0645-2.226,1.251-.436.2441.244.4355.407.7256-2.533.7002-1.066-1.9043l13.847-3.7422l2.011,3.5791Zm-8.164,3.4278l-1.177,1.1045-1.424-2.541l1.555-.4307l1.046,1.8672Zm-1.548-2.7656l-1.556.4306-.282-.5049l1.367-.7666.471.8409Z"></path><path stroke="#201c1a" fill="#201c1a" d="M137.337,57.225c.709-.2317,1.377-.2545,2.029-.0948.656.1606,1.251.4957,1.773.9903.516.5043.898,1.1163,1.132,1.874.238.7692.29,1.4958.154,2.2324-.135.7276-.457,1.3786-.966,1.9717-.429.4856-.966.8813-1.626,1.1885l-.872-1.9629c.62-.2811,1.116-.636,1.45-1.1065l-.001-.0009c.41-.5625.554-1.1994.342-1.835-.174-.522-.486-.9124-.976-1.1465l-.015-.0078-.176-.0674c-.412-.1371-.836-.1343-1.257-.0166l-.013.0039c-.431.1329-.778.3598-1.037.6612l-.105.1338-.007.0107c-.25.3652-.379.7625-.434,1.1602-.05.3693-.066.9048-.081,1.5195v.0127c0,.8635-.06,1.5804-.16,2.1387v.0019c-.087.4995-.341.9983-.786,1.5127-.409.4727-1.079.8907-2.03,1.1934l-.004.0009c-.708.2313-1.404.2559-2.068.083-.673-.1749-1.279-.5241-1.796-1.0546-.52-.5337-.925-1.2113-1.194-2.0596-.216-.6934-.295-1.3483-.242-1.9697l.116-.5157c.177-.7895.557-1.4852,1.166-2.1084.521-.5321,1.169-.97,1.952-1.3105l.873,1.8662c-.821.3525-1.459.7878-1.894,1.3281l-.005.0069c-.522.6716-.683,1.4356-.418,2.2705v.0009c.185.5902.534,1.0604,1.055,1.3311.51.265,1.072.2961,1.638.127v.0009c.513-.1519.907-.433,1.177-.8486.247-.3639.39-.79.444-1.2344.048-.4037.08-.9246.095-1.5722v-.0127c0-.8562.074-1.5743.175-2.1387.089-.497.32-.9809.727-1.4551.376-.4395.985-.8127,1.866-1.1015l-.001-.001Z"></path><path stroke="#201c1a" fill="#201c1a" d="M145.151,75.7493l-1.555.1963-.609-4.8731-.062-.4951-.495.0615-3.356.4111-.496.0616.061.4961.503,4.0957-1.555.1953-.503-4.0928-.061-.4971-.497.0616-3.813.4736-.496.0615.061.4961.61,4.9336-1.556.1963-.943-7.5635l13.834-1.7119.928,7.4932Z"></path><path fill="#201c1a" d="M13.6504,94.0496l7.2602-1.7998l1.1287,4.591-1.2964.3203-.7779-3.1725-1.6473.4118.6711,2.7302-1.266.3203-.6711-2.7302-1.754.4271.7931,3.2183-1.2965.3203-1.1439-4.6368Z"></path><path fill="#201c1a" d="M15.1152,99.9352l8.0382.1828.5033,1.373-8.0076-.091-.5339-1.4495v-.0153Zm2.0134.7318l1.2049-.442l1.6168,4.393-1.2049.442-1.6168-4.393Zm.0305,4.805l6.0248-5.277.5033,1.372-5.9943,5.354-.5338-1.449Z"></path><path fill="#201c1a" d="M19.3388,110.506c-.1678-.335-.2898-.671-.3508-1.007-.061-.335-.0763-.655-.0457-.96.0305-.306.1067-.58.2135-.824s.2593-.442.4423-.58l1.0219,1.083c-.1677.183-.2898.427-.3355.717s0,.595.1525.915c.1678.336.3813.58.6406.717s.5034.137.7474.015c.2135-.106.3508-.274.3966-.518.061-.244.0457-.534-.0153-.854l-.2135-.977c-.0763-.366-.0915-.716-.061-1.052.0457-.336.1525-.625.3355-.9.1831-.259.4271-.473.7627-.64.6253-.321,1.2202-.351,1.7845-.122.5644.244,1.0372.747,1.4185,1.51.2135.427.3356.823.3813,1.22.0458.396,0,.747-.122,1.067-.122.336-.305.641-.5643.9l-1.022-1.067c.1831-.183.2898-.412.3356-.702.0457-.275,0-.58-.1525-.885-.1526-.32-.3508-.533-.5949-.64s-.4881-.092-.7626.046c-.2136.106-.3356.259-.3813.457s-.0458.442.0152.732l.2288.992c.1525.64.122,1.22-.0763,1.708-.1982.503-.5338.869-.9761,1.083-.3966.198-.7932.274-1.1745.229-.3965-.046-.7626-.199-1.1134-.488-.3508-.275-.6559-.672-.9152-1.19v.015Z"></path><path fill="#201c1a" d="M22.5881,116.026l3.0201-1.937.7931,1.235-3.02,1.937-.7932-1.235Zm2.6235-1.632l2.2269-4.637.8999,1.403-2.0896,4.21-1.0372-.961v-.015Zm.7474,1.159l-.4424-1.342l4.6978-.168.8999,1.403-5.1401.122-.0152-.015Z"></path><path fill="#201c1a" d="M28.3841,123.898l4.6368-4.027-1.4795-1.693l1.0067-.869l3.8894,4.484-1.0066.87-1.4643-1.678-4.6368,4.026-.9609-1.098.0152-.015Z"></path><path fill="#201c1a" d="M34.2555,130.164c-.5644-.503-.9457-1.083-1.144-1.708-.1982-.64-.2287-1.281-.0915-1.922.1526-.656.4729-1.25.9914-1.815.5186-.564,1.083-.945,1.7083-1.144.6407-.213,1.266-.244,1.9219-.091.6406.137,1.2354.473,1.7998.976.5491.503.9304,1.068,1.1287,1.708.1983.641.2288,1.266.0762,1.922-.1525.656-.4728,1.251-.9914,1.815-.5033.549-1.0677.931-1.7083,1.144-.6253.214-1.2659.244-1.9066.107-.6406-.137-1.2354-.458-1.7998-.961l.0153-.031Zm.8999-.991c.3356.305.7016.488,1.0982.564.4118.077.8084.031,1.2049-.106.3966-.153.7627-.412,1.0982-.763.3356-.366.5491-.747.6559-1.159s.1068-.824,0-1.205c-.1068-.397-.3356-.748-.6864-1.068-.3355-.305-.7016-.488-1.1134-.564-.4118-.077-.8084-.046-1.205.107-.3965.137-.7779.396-1.1134.762s-.5491.748-.6559,1.159c-.1067.412-.1067.824,0,1.221.122.396.3508.762.6864,1.067l.0305-.015Z"></path><path fill="#201c1a" d="M40.7989,135.396l3.981-6.329l1.3422.838.122,3.89l3.5539-1.571l1.3422.839-3.9809,6.33-1.2355-.778l2.7607-4.393-3.7521,1.647-.1525-4.088-2.7607,4.378-1.2355-.778.0152.015Z"></path><path fill="#201c1a" d="M48.5339,140.141l5.7808-5.583l1.327.61-5.7045,5.613-1.4033-.64Zm1.9371-.931l.5339-1.174l4.2707,1.937-.5338,1.174-4.2708-1.937Zm3.4319,3.371l.5033-7.992l1.327.61-.4118,8.023-1.4033-.641h-.0152Z"></path><path fill="#201c1a" d="M56.6782,143.693l2.2727-7.123l1.3727.443-2.2726,7.123-1.3728-.443Zm1.4185-1.525l.3966-1.8l4.4843-2.501l1.7998.579-6.6807,3.722Zm2.7912,2.868l-1.6777-4.53l1.2659-.504l2.1201,5.598-1.7235-.549.0152-.015Z"></path><path fill="#201c1a" d="M64.0005,145.89l1.51-7.322l4.6368.946-.2745,1.312-3.2031-.656-.3356,1.662l2.7608.565-.2593,1.281-2.7608-.564-.366,1.769l3.2488.671-.2746,1.312-4.6673-.961-.0152-.015Z"></path><path fill="#201c1a" d="M69.8267,148.238l.9761-2.41l1.449.199-1.3727,2.364-1.0524-.137v-.016Z"></path><path fill="#201c1a" d="M76.3074,147.706l.122-7.489l1.4642.031-.122,7.489-1.4642-.031Zm1.1439-3.142v-1.342l4.5453.076v1.343l-4.5453-.077Zm3.7674,3.219l.122-7.474l1.4643.03-.122,7.474-1.4643-.03Z"></path><path fill="#201c1a" d="M84.1781,147.723l2.0591-7.763l1.449-.168-1.9828,7.748-1.5406.183h.0153Zm1.1897-1.784l-.1525-1.282l4.652-.533.1525,1.281-4.652.534Zm4.6673,1.113l-3.7064-7.092l1.449-.168l3.7827,7.077-1.5406.183h.0153Z"></path><path fill="#201c1a" d="M92.9952,146.564l-1.7083-7.276l2.6997-.641c.5186-.122.9914-.122,1.4337-.015.4424.107.8084.305,1.1135.61s.5033.687.6253,1.144c.1068.458.0915.885-.061,1.297s-.3966.762-.7626,1.052c-.3508.29-.7931.503-1.2965.625l-1.2202.29.6101,2.578-1.4185.336h-.0152Zm.5033-4.21l1.2812-.305c.2136-.046.3966-.138.5491-.275s.2593-.29.3203-.473.0763-.381.0305-.579c-.0762-.305-.244-.534-.5186-.687-.2745-.137-.5796-.167-.9304-.091l-1.2202.29.4881,2.105v.015Zm3.4928,3.264l-2.3641-2.532.9151-1.037l3.0658,3.188-1.6168.381Z"></path><path fill="#201c1a" d="M100.195,144.748l-2.5324-7.032l2.2574-.808c.717-.259,1.403-.336,2.059-.229s1.236.366,1.739.778.869.961,1.129,1.647c.244.687.305,1.343.183,1.983-.122.641-.397,1.205-.855,1.709-.457.503-1.021.884-1.738,1.143l-2.258.809h.016Zm.915-1.769l.869-.321c.32-.122.595-.274.839-.488.229-.213.412-.457.549-.732s.198-.564.229-.885c.03-.32-.031-.625-.153-.945-.106-.321-.274-.595-.488-.824-.213-.229-.457-.412-.732-.534-.274-.122-.579-.198-.885-.213-.32,0-.64.03-.96.152l-.8698.321l1.6018,4.453v.016Z"></path><path fill="#201c1a" d="M111.51,139.99l-2.913-5.4-1.968,1.068-.64-1.174l5.216-2.822.641,1.174-1.968,1.068l2.913,5.399-1.281.702v-.015Z"></path><path fill="#201c1a" d="M118.938,135.612c-.61.427-1.266.686-1.922.747-.671.061-1.296-.046-1.906-.336-.595-.289-1.114-.747-1.556-1.357-.427-.625-.687-1.266-.748-1.922s.046-1.296.321-1.891c.274-.595.732-1.114,1.342-1.541s1.251-.671,1.907-.732c.655-.061,1.296.061,1.891.336.595.289,1.113.747,1.556,1.357.427.61.671,1.251.747,1.907.061.656-.03,1.296-.32,1.891s-.717,1.113-1.327,1.541h.015Zm-.763-1.099c.366-.259.626-.579.793-.945.168-.382.214-.778.153-1.205s-.229-.839-.503-1.236c-.29-.396-.61-.701-.992-.9-.381-.198-.778-.274-1.189-.259-.412.031-.809.168-1.19.427-.366.259-.641.58-.793.961-.168.381-.214.778-.168,1.205s.229.839.503,1.251c.29.396.61.701.992.9.381.198.778.274,1.189.259.412-.031.809-.168,1.19-.442l.015-.016Z"></path><path fill="#201c1a" d="M125.345,130.378l-5.171-5.399l3.463-3.326.93.961-2.41,2.304l1.236,1.296l1.998-1.922.93.961-1.998,1.922l2.09,2.166-1.053,1.006-.015.031Z"></path><path fill="#201c1a" d="M132.225,123.35c-.488.579-1.038.991-1.663,1.22s-1.266.29-1.922.168-1.266-.428-1.845-.9c-.58-.473-.992-1.038-1.22-1.663-.229-.625-.306-1.266-.184-1.906.122-.656.412-1.266.885-1.846s1.022-.976,1.647-1.205c.626-.229,1.266-.29,1.922-.168s1.266.427,1.846.9c.579.473.976,1.022,1.22,1.647.244.626.305,1.251.198,1.907-.106.656-.396,1.266-.884,1.83v.016Zm-1.022-.855c.29-.35.457-.716.518-1.128s0-.809-.167-1.205c-.168-.397-.443-.748-.824-1.068s-.778-.518-1.19-.61-.823-.061-1.205.061c-.396.122-.732.366-1.022.732-.29.351-.457.717-.518,1.129s0,.808.152,1.205c.168.396.443.747.824,1.067.381.321.778.519,1.19.611.411.091.823.061,1.22-.077.396-.137.732-.381,1.037-.732l-.015.015Z"></path><path fill="#201c1a" d="M135.535,118.895l-6.285-4.057l1.511-2.333c.289-.443.625-.778,1.021-1.007.397-.229.809-.336,1.236-.336s.839.138,1.235.397c.397.259.687.58.855.976.167.397.244.824.183,1.281-.061.458-.229.9-.504,1.343l-.686,1.052l2.227,1.434-.793,1.235v.015Zm-2.548-3.386l.717-1.113c.122-.183.183-.381.199-.58.015-.198-.016-.381-.092-.564s-.214-.32-.381-.427c-.275-.168-.549-.214-.839-.137-.29.091-.534.289-.732.595l-.671,1.052l1.815,1.174h-.016Zm4.774-.061l-3.462-.167-.061-1.373l4.423.152-.9,1.388Z"></path><path fill="#201c1a" d="M141.117,109.56c-.336.686-.778,1.22-1.343,1.601-.564.382-1.174.595-1.83.641-.671.046-1.342-.092-2.013-.427-.671-.336-1.205-.778-1.571-1.327s-.58-1.175-.626-1.846c-.045-.671.107-1.357.443-2.028.198-.412.442-.763.732-1.037.29-.29.61-.504.945-.672.351-.167.702-.259,1.053-.305l.137,1.404c-.229.03-.442.091-.671.198s-.427.259-.595.427-.32.366-.427.58c-.214.427-.29.838-.259,1.266.03.427.183.808.427,1.159s.595.64,1.037.854c.442.213.885.32,1.312.305.442,0,.823-.137,1.189-.381.351-.229.641-.58.855-1.007.167-.336.244-.671.244-1.007c0-.335-.092-.64-.26-.9-.167-.259-.412-.488-.732-.64l.412-1.342c.641.305,1.113.701,1.434,1.189.32.488.488,1.007.488,1.571c0,.58-.137,1.159-.427,1.754l.046-.03Zm-2.578-1.541l-1.022-.503l1.388-2.822.808.397-.137.808-1.037,2.105v.015Z"></path><path fill="#201c1a" d="M143.053,104.956l-7.047-2.517l1.587-4.4538l1.25.4424-1.098,3.0814l1.602.564.945-2.654l1.221.4423-.946,2.6537l1.693.61l1.113-3.111l1.251.442-1.601,4.5h.03Z"></path><path fill="#201c1a" d="M145.6,97.0222l-5.964-1.4795-.534,2.1811-1.296-.3203l1.418-5.7655l1.297.3203-.534,2.1659l5.964,1.4795-.351,1.4185Z"></path></g><g transform="translate(78.7615,98.6864)" id="eeluDoT6dng42_to"><g transform="rotate(-4.121746)" id="eeluDoT6dng42_tr"><g transform="translate(-78.76149,-98.686397)"><path fill="#fff" d="M94.1253,109.943c1.632-.671,3.02-1.937,3.7979-3.523.5644-1.129.8237-2.364,1.0677-3.6.3966-1.922.7931-3.8587,1.1901-5.7805.945-4.591,1.906-9.2278,2.028-13.9256.015-.8999-.061-1.9676-.823-2.4557-.55-.3661-1.266-.2898-1.907-.183-2.5167.4575-5.1554,1.4154-7.2417,2.2987l.3475,3.0549l5.1706-2.2574c.7169-.305,1.7693-.5033,2.0896.2136.1221.2745.061.5796,0,.8694-1.0982,5.7045-2.1048,11.4394-3.0047,17.1746-.3051,1.906-.7779,4.118-2.5167,4.987l-.2135,3.097.0152.03Z"></path><path stroke-linejoin="round" stroke-linecap="round" stroke="#201c1a" fill="none" d="M91.9851,83.1249c2.3974-.8832,5.5133-2.4556,7.3815-2.8115.6404-.122,1.4704-.0102,2.0194.3559.747.5033.839,1.5557.823,2.4557-.823,7.0304-1.877,13.2083-3.2179,19.706-.2593,1.221-.5186,2.471-1.0677,3.6-.7779,1.586-2.1659,2.852-3.7979,3.523"></path><path fill="#fff" d="M91.6075,79.2236c0,0,.0763-.0916.0916-.1373.2898-.7321-.6101-1.3575-1.3575-1.6168-.6711-.244-1.327-.4728-1.9981-.6711-4.1945-1.3422-8.5262-2.2116-12.9037-2.6692-2.1812-.2288-4.3775-.3508-6.5892-.3813-1.0524,0-7.6873-.5186-7.3517.488.061.1678.1677.3051.305.4576.0915,4.5453.7016,10.5243,1.327,15.4357c1.2965,1.693.379599,7.184899,2.3015,7.855999c1.4947.5186,7.989313,1.494299,11.329613.7012c3.4624-.823701,8.042887-.4118,11.581487,0c.8541.0915,5.155.135601,4.7603-4.5622-.4576-4.5758-.9624-10.309599-1.5115-14.885399l.0152-.0152Z"></path><g clip-path="url(#eeluDoT6dng48)"><g transform="translate(100.5405,93.100617)" id="eeluDoT6dng47_to"><path stroke="#201c1a" fill="#73a800" transform="translate(-101.0187,-92.908595)" d="M57.0314,84.350602c0,1.26775,4.9058,6.6683,11.9199,7.9633s12.0118-1.1439,18.1511-1.1439s10.2266,4.248499,14.8766,5.240998s9.591-2.315601,16.944-.942901s6.463,3.5875,12.409,4.3932s8.784442-1.4952,14.619-1.4952s6.08446,2.432596,12.176958,3.866796s12.6754-2.358924,17.9351-1.4801q5.2597.878824,7.3528,2.9143l3.9521,34.9116-148.200673-17.041q12.74148-28.4737,17.864115-37.187093Z"></path></g><clipPath id="eeluDoT6dng48"><path fill="#73a800" d="M94.1705,116.531c-.0152.793-.061,1.601-.2898,2.364-.6101,2.059-2.776,3.417-4.9418,3.432-8.1297.091-16.3813,0-24.2212-2.12-1.2507-.351-2.5777-.809-3.3098-1.876-.8542-1.282-.5949-2.959-.2441-4.454.8542-3.874,2.2422-10.921,3.2641-14.7646c0,0-1.546541-8.192-2.171941-13.2712c1.3423,1.6931,28.924241,3.586552,30.739241,4.257652.7779,7.8397,1.4346,18.562148,1.1753,26.432148Z"></path></clipPath></g><path stroke-linejoin="round" stroke-linecap="round" stroke="#201c1a" fill="none" d="M92.5845,85.8412l5.1706-2.2574c.7169-.3051,1.7693-.5033,2.0896.2135.122.2746.061.5796,0,.8694-.7935,5.4257-2.4454,13.6785-3.0047,17.1743-.3092,1.932-.7779,4.118-2.5167,4.988"></path><path stroke-linejoin="round" stroke-linecap="round" stroke="#201c1a" fill="none" d="M61.513,74.2332c-.3355-.9914,6.2994-.4881,7.3365-.4728c2.1964.0152,4.408.1372,6.5892.366c4.3775.4576,8.7092,1.327,12.8884,2.6692.6712.2136,1.3423.4424,1.9981.6712.7474.2745,1.4185.7016,1.3575,1.632"></path><path stroke-linejoin="round" stroke-linecap="round" stroke="#201c1a" fill="none" d="M61.4983,74.2357c.122,9.5024,1.3727,16.3508,2.7455,25.7465"></path><path stroke-linejoin="round" stroke-linecap="round" stroke="#201c1a" fill="none" d="M91.699,79.0856c1.4795,12.4004,2.8675,24.9534,2.471,37.4454-.0305.793-.0611,1.601-.2898,2.364-.6254,2.059-2.7913,3.417-4.9419,3.447-8.1296.092-16.3813,0-24.2212-2.12-1.2507-.336-2.5776-.793-3.3098-1.876-.8541-1.266-.5948-2.959-.2593-4.454c1.9981-8.892,6.3451-27.6377,7.3213-36.6977"></path><g mask="url(#eeluDoT6dng93)"><path fill-rule="evenodd" fill="#201c1a" clip-rule="evenodd" d="M60.438,76.7775c.2413.0765.485.1431.7119.2369.2565.1007.3231.3957.146.6242-.0598.0795-.1264.1884-.2043.2119-.3019.096-.5947.2874-.9329.1368l.2793-1.2098Z"></path><path fill-rule="evenodd" fill="#201c1a" clip-rule="evenodd" d="M73.7683,72.7068c-.0764.1066-.143.2156-.2172.3124-.1385.196-.3163.2482-.5402.1861-.0787-.0182-.1476-.0341-.2262-.0522-.5607-.1295-.5909-.1779-.5288-.8059l1.5048.3475.0076.0121Z"></path><path fill-rule="evenodd" fill="#201c1a" clip-rule="evenodd" d="M88.2465,76.0493c0,0-.0076.1225-.0341.1475-.2731.1959-.569.3555-.883.4592-.146.0491-.2829-.0757-.3397-.2339-.09-.2383-.1603-.4721-.2405-.7082l1.5049.3475-.0076-.0121Z"></path><path fill-rule="evenodd" fill="#201c1a" clip-rule="evenodd" d="M81.0073,74.378c0,0-.0424.0938-.0734.1385-.3156.4244-.3367.4713-.9889.2896-.283-.0756-.3412-.1823-.3374-.513-.0038-.0734.0242-.1498.0325-.2307l1.3574.3133.0098.0023Z"></path><path fill-rule="evenodd" fill="#201c1a" clip-rule="evenodd" d="M84.4792,75.1796c-.0227.0983-.0454.1967-.0681.295-.0651.1922-.2103.283-.4018.2595-.2723-.0318-.5424-.0734-.8224-.252.0258-.2013.0591-.3904.0924-.5796l1.2098.2793-.0099-.0022Z"></path><path fill-rule="evenodd" fill="#201c1a" clip-rule="evenodd" d="M77.3878,73.5424c-.0431.1868-.0863.3737-.1513.5659-.709.0642-1.0123-.327-1.206-.8793l1.3573.3134Z"></path><path fill-rule="evenodd" fill="#201c1a" clip-rule="evenodd" d="M61.2738,73.158c.0643.0356.1407.0636.1951.0969.364.2187.398.3405.1672.712-.0666.1089-.1135.2224-.1877.3192-.1195.1589-.2807.1839-.4638.0794l.2793-1.2097.0099.0022Z"></path><path fill-rule="evenodd" fill="#201c1a" clip-rule="evenodd" d="M91.7183,76.8509c-.1967.3586-.5735.3752-.9004.4448-.0976.0189-.2497-.1302-.3495-.2361-.1695-.1635-.0083-.3231.05-.4858l1.2098.2793-.0099-.0022Z"></path><path fill-rule="evenodd" fill="#201c1a" clip-rule="evenodd" d="M76.6567,77.3828c-.0598.0795-.112.171-.1794.2383-.2784.3087-.7142.3117-.9987.0181-.0174-.0144-.0325-.0386-.0477-.0628-.1354-.1763-.2685-.3624-.3964-.5266-.0264-.2444.078-.4275.2422-.5554.4025-.3525.7687-.2783,1.0305.1136.1535.2323.2269.4979.3495.7748Z"></path><path fill-rule="evenodd" fill="#201c1a" clip-rule="evenodd" d="M77.9173,76.4099c-.1362-.0832-.1982-.1286-.2625-.1642-.4608-.2928-.5447-.6023-.2814-1.0698.0757-.1483.2164-.2194.3784-.2028.348.0182.6438.128.8859.3807.227.2285.2095.6182-.0788.7899-.1937.121-.4131.174-.6416.2662Z"></path><path fill-rule="evenodd" fill="#201c1a" clip-rule="evenodd" d="M76.9683,78.6358c.1801.0726.37.1475.5553.2421.1112.0568.2179.1332.3125.2172.1468.1271.2209.2996.1482.4797-.0749.1899-.2187.3639-.4487.373-.2322.0189-.46.0181-.6855.0075-.174-.0091-.3253-.1166-.3306-.2732-.0113-.3548.0016-.7248.3005-.9873.0386-.0326.0923-.0409.1483-.059Z"></path><path fill-rule="evenodd" fill="#201c1a" clip-rule="evenodd" d="M81.5856,80.0851c-.1067.1929-.1748.3533-.28.4948-.1218.1687-.3034.2822-.5213.2837-.2913.0053-.578-.1438-.6378-.3337-.1014-.3239-.0287-.6386.2127-.8315.1786-.1453.3776-.2444.6356-.1952.317.0629.4894.2581.5908.5819Z"></path><path fill-rule="evenodd" fill="#201c1a" clip-rule="evenodd" d="M84.2252,81.8445c-.3268-.3345-.1535-.771-.4259-1.0722.1029-.1316.1597-.2428.2513-.3253.255-.2519.4433-.2602.7218-.0302.0794.0598.1566.1294.2216.2066.258.3185.1929.7801-.1559.9896-.1695.1059-.3768.1513-.6152.2413l.0023-.0098Z"></path><path fill-rule="evenodd" fill="#201c1a" clip-rule="evenodd" d="M87.109,78.9568c.1059.1695.2171.3609.3381.5546-.0877.1559-.1589.2845-.2398.4108-.1953.3072-.28.3601-.6114.18-.2398-.1279-.6068.0257-.7187-.4767.0045-.0197.0189-.1717.0628-.317.0552-.1945.2104-.283.3988-.2913.2421-.0166.494-.0309.78-.0582l-.0098-.0022Z"></path><path fill-rule="evenodd" fill="#201c1a" clip-rule="evenodd" d="M89.6148,78.3336c0,0-.0287.0348-.0529.0499-.1453.0908-.3004.1793-.4896.2807-.1188-.0689-.2428-.1597-.3783-.2013-.143-.0537-.2973-.0583-.4373-.0802-.1974-.3564-.0884-.6939.0546-1.0442.2996-.0862.6477-.068.7816.1598.1618.286.7089.3397.5219.8353Z"></path><path fill-rule="evenodd" fill="#201c1a" clip-rule="evenodd" d="M84.9915,76.5513c.3753.1695.8186.1787,1.0736.6001-.0273.118-.0243.2845-.0757.4176-.0886.249-.3428.4078-.5978.3904-.2549-.0174-.4237-.1393-.4993-.395-.0393-.1438-.1324-.2792-.1596-.4305-.0454-.2073-.0098-.4063.2588-.5826Z"></path><path fill-rule="evenodd" fill="#201c1a" clip-rule="evenodd" d="M80.0501,77.6275c-.0571.5463-.3254.8711-.8051.9744-.0621-.0454-.1392-.115-.221-.1649-.2625-.1642-.2715-.3942-.1981-.6674.0658-.2852.2739-.4236.5274-.4894.0878-.0212.2035.0159.2852.0658.146.0855.2852.2005.4191.2936l-.0075-.0121Z"></path><path fill-rule="evenodd" fill="#201c1a" clip-rule="evenodd" d="M89.6699,80.294c.1445-.5365.5107-.5969.9223-.5848.2497.1302.3178.3738.3737.625.0696.3268.0015.4872-.28.6295-.2451.1195-.547.0809-.6953-.1295-.1354-.1763-.2322-.3851-.3207-.5402Z"></path><path fill-rule="evenodd" fill="#201c1a" clip-rule="evenodd" d="M64.2335,74.8773c.0515-.1332.0772-.3344.193-.432.1831-.1649.4108-.2988.6439-.4108.199-.0991.3957-.0537.5576.0977.1271.1226.1536.3669.0544.572-.2005.4199-.4434.5296-.9253.4183-.1181-.0273-.2437-.0666-.3572-.1135-.0491-.0114-.0794-.0598-.1566-.1294l-.0098-.0023Z"></path><path fill-rule="evenodd" fill="#201c1a" clip-rule="evenodd" d="M83.7036,78.4503c-.0333.1892-.0529.3193-.0802.4373-.0227.0984-.0651.1922-.0878.2905-.3337.0991-.656.149-.9813.0325-.1551-.0462-.2769-.1468-.3117-.3103-.0348-.1634.056-.2875.1839-.3926.1861-.1332.3624-.2686.5993-.4418.1929.1067.4032.2278.6703.3723l.0075.0121Z"></path><path fill-rule="evenodd" fill="#201c1a" clip-rule="evenodd" d="M71.3177,80.4496c-.1694-.2981-.6643-.1741-.7308-.6038.6878-.6907,1.0752-.6635,1.6531.1537-.1702.3337-.4925.3836-.9223.4501Z"></path><path fill-rule="evenodd" fill="#201c1a" clip-rule="evenodd" d="M74.2903,74.4848l.7967.1839c.0355.0704.0885.1551.1172.255.0757.2558.0877.5175-.1589.6885-.2202.146-.4426.0325-.6643-.0394-.0689-.0159-.1264-.081-.1884-.1264-.3919-.2769-.3941-.5364-.0832-.8065.0386-.0325.0772-.0651.1688-.1475l.0121-.0076Z"></path><path fill-rule="evenodd" fill="#201c1a" clip-rule="evenodd" d="M62.958,72.1897c.081-.1263.1332-.2179.193-.2973.2195-.3223.3511-.3541.6923-.1717.3783.2013.4176.3451.2163.7233-.0522.0916-.0923.1756-.1347.2694-.0355.0643-.0635.1407-.1014.2148-.0998.0288-.1899.0598-.2898.0885-.1437.0394-.2648-.0197-.3185-.146-.0968-.2088-.1596-.4305-.2572-.681Z"></path><path fill-rule="evenodd" fill="#201c1a" clip-rule="evenodd" d="M65.8822,81.0181c-.2103.0136-.3957.0537-.5674.0347-.2648-.0197-.4298-.3375-.3041-.5675.14-.2474.3148-.466.5819-.5908.1747-.084.3465-.0651.5122.025.1581.0779.2481.3163.1626.4623-.109.2028-.2353.3911-.395.634l.0098.0023Z"></path><path fill-rule="evenodd" fill="#201c1a" clip-rule="evenodd" d="M73.0935,78.9948c.0401-.3533.0712-.6673.1075-.9593.2974-.2111.5357-.1664.8081.0001.208.1309.2602.3087.2882.5016.0113.0855-.0129.2353-.0658.2852-.162.1181-.339.2119-.5236.2936-.1945.0794-.3973.1051-.6046-.1189l-.0098-.0023Z"></path><path fill-rule="evenodd" fill="#201c1a" clip-rule="evenodd" d="M63.5628,77.8718c.3329-.41.6953-.4092,1.1039-.1595.0416.2686.0832.5372.13.8277-.0991.0704-.1929.1627-.3072.2088-.3404.1286-.6045.0159-.7353-.3148-.0719-.1823-.1294-.3821-.1816-.5599l-.0098-.0023Z"></path><path fill-rule="evenodd" fill="#201c1a" clip-rule="evenodd" d="M67.6316,79.7229c-.0976-.1157-.2368-.2307-.3057-.3813-.0786-.1529-.0968-.3435-.1293-.5168-.0522-.3125.1983-.5447.5032-.4743.2656.0613.4547.2293.5909.4472.0529.0847.0363.2466-.0008.3624-.0606.1725-.2853.3382-.6583.5628Z"></path><path fill-rule="evenodd" fill="#201c1a" clip-rule="evenodd" d="M71.2138,74.5723c-.7112.0741-.7361-.4911-1.0039-.812.1846-.351.5425-.3305.8096-.4554.2209-.1043.4819.1113.4547.364-.0386.3019-.0773.6038-.2505.9057l-.0099-.0023Z"></path><path fill-rule="evenodd" fill="#201c1a" clip-rule="evenodd" d="M62.8897,75.1783c.084.1748.1627.3276.2391.4903.2897.5849.2216.7453-.442,1.0168-.3086-.2785-.5273-.5879-.3888-1.0532.0833-.2709.1749-.488.5917-.4539Z"></path><path fill-rule="evenodd" fill="#201c1a" clip-rule="evenodd" d="M67.7501,73.2857c-.2421.4206-.6098.3979-.9578.3797-.1642-.0068-.3307-.2731-.2573-.4116.1733-.3019.2596-.6756.6811-.7959.4131.0954.5.4366.5439.8301l-.0099-.0023Z"></path><path fill-rule="evenodd" fill="#201c1a" clip-rule="evenodd" d="M69.053,75.8553c-.2974.0763-.5486.1323-.7922.2004-.1975-.0871-.3079-.2369-.2928-.482.0174-.255.1589-.4192.3973-.5092.1823-.0718.3594-.1656.5781-.2602.1271.1226.242.2527.3843.3995-.0591.1211-.106.2346-.1529.3481-.0424.0938-.0749.1899-.112.3056l-.0098-.0022Z"></path><path fill-rule="evenodd" fill="#201c1a" clip-rule="evenodd" d="M66.1883,77.0898c-.1566.0053-.2564-.1006-.2368-.2308.0258-.2012.1204-.3866.1711-.5614.2353-.1218.4789-.1898.6658-.012.1793.1657.3109.4033.413.6341.0333.0802-.0393.2602-.1188.3351-.2043.2119-.485.261-.7468.2731-.1762-.1339-.1157-.3064-.1671-.4426.1134.0469.2126.1112.3207.1362.0394.0091.1309-.0734.1446-.1324.0113-.0492-.0295-.1415-.0719-.1824-.0446-.031-.1453-.0438-.1937-.0136-.0726.0454-.1347.1347-.1944.2141l.0143-.0174Z"></path><path fill-rule="evenodd" fill="#201c1a" clip-rule="evenodd" d="M81.8251,75.9964c.385.3065.4932.6008.2949,1.0109-.1029-.003-.2058-.0061-.3011.003-.4308.0111-.7909-.1791-1.0804-.5706.0235-.1914.1446-.2671.3216-.2262.2951.0681.5523.0757.7725-.2049l-.0075-.0122Z"></path><path fill-rule="evenodd" fill="#201c1a" clip-rule="evenodd" d="M62.5897,79.1701c-.0567.2459-.0825.4472-.1476.6393-.084.2293-.3692.2981-.5705.1377-.2209-.165-.4297-.3375-.6831-.5411.227-.1755.4608-.3805.7271-.5469.0848-.053.2542-.0242.3579.0205.1135.0469.1914.1581.3283.283l-.0121.0075Z"></path><path fill-rule="evenodd" fill="#201c1a" clip-rule="evenodd" d="M70.0848,76.9948c.1551.3155.2693.5388.3911.7741-.1233.3548-.4086.4236-.7248.4024-.3261-.0235-.482-.2459-.581-.5796.0771-.0651.1823-.2065.2633-.1982.2943.0265.4297-.2012.6416-.4009l.0098.0022Z"></path><path fill-rule="evenodd" fill="#201c1a" clip-rule="evenodd" d="M75.6122,80.4258c-.0151.1104-.0325.2307-.0401.3533-.45.2138-.8527.2383-1.2083.0733-.0938-.3117.1067-.4623.3322-.5864.32-.1747.3889-.1588.9162.1598Z"></path><path fill-rule="evenodd" fill="#201c1a" clip-rule="evenodd" d="M71.5527,76.6499c-.0234-.0779-.0537-.1263-.0544-.168.0295-.1278.0567-.2458.084-.3639.0507-.0401.084-.0945.118-.1074.2361-.0802.4699-.1505.7597-.239.0098.0023.0983.0227.1483.0757.2678.3208.2382.5833-.1091.7414-.3109.1354-.6287.1657-.9465.0612Z"></path><path fill-rule="evenodd" fill="#201c1a" clip-rule="evenodd" d="M93.0477,78.9914c-.196.1309-.3799.2542-.6046.4199-.1929-.1067-.4032-.2278-.6506-.3678.0469-.1135.0545-.236.1173-.2837.1377-.1029.3026-.1891.4661-.2239.3563-.0628.5727.1218.6718.4555Z"></path><mask width="400%" height="400%" y="-150%" x="-150%" id="eeluDoT6dng93"><path fill="#fff" transform="translate(0.000001 0)" d="M64.7045,73.1151c.8795.0008,1.7998.0338,2.5609.0668.7723.0335,1.3592.0655,1.6081.069l-.001.0009c2.2011.0127,4.4179.1318,6.6039.3595c4.3869.4555,8.7315,1.3264,12.9248,2.6752.3369.1074.6742.2193,1.0083.3321l.9935.342.0079.002c.3944.1452.8306.352,1.1608.6889.3177.3242.5135.7487.5174,1.2816.0249.1025.0207.213-.0239.3176-.1518.3551-.4325.5828-.7093.7248-.271.1389-.5686.2114-.8285.2477-1.396.2274-2.809.0988-4.1435-.052-4.5206-.484-9.0272-1.1517-13.4879-2.0186-2.2378-.4257-4.4593-.9129-6.6624-1.4295-.2713-.061-1.4061-.2605-2.4964-.5985-.5477-.1698-1.1145-.3822-1.5799-.646-.3922-.2224-.7935-.5265-.9977-.9407-.0302-.041-.0563-.0861-.0734-.137-.0655-.1953-.0479-.4071.0616-.5908.0959-.1605.2394-.2598.3546-.322.229-.1235.534-.1956.8393-.2437.6296-.0993,1.4902-.1301,2.3628-.1293Z"></path></mask></g><g mask="url(#eeluDoT6dng157)"><g><path fill-rule="evenodd" fill="#201c1a" clip-rule="evenodd" d="M59.8037,119.685c.1286.071.2716.125.398.206.4017.279.4667.491.3025.888-.1264.323-.4207.432-.883.325-.0491-.011-.0938-.042-.1309-.061l.3134-1.358Z"></path><path fill-rule="evenodd" fill="#201c1a" clip-rule="evenodd" d="M61.4045,112.751c.2414.077.485.143.712.237.2565.101.323.396.146.624-.0598.08-.1264.189-.2044.212-.3018.096-.5947.288-.9329.137l.2793-1.21Z"></path><path fill-rule="evenodd" fill="#201c1a" clip-rule="evenodd" d="M60.5691,116.371c.2814.127.5606.264.7444.544-.0628.452-.367.693-.7657.849-.0802.034-.1914-.023-.2921-.036l.3134-1.357Z"></path><path fill-rule="evenodd" fill="#201c1a" clip-rule="evenodd" d="M74.7348,108.68c-.0764.107-.143.216-.2171.313-.1385.196-.3163.248-.5403.186-.0787-.018-.1475-.034-.2262-.052-.5606-.13-.5909-.178-.5288-.806l1.5049.347.0075.012Z"></path><path fill-rule="evenodd" fill="#201c1a" clip-rule="evenodd" d="M70.9679,107.811l-.0886.383c-.1142.046-.2308.102-.345.149-.4888.187-.771.018-.8148-.51-.0091-.095.0257-.201.0484-.299l1.2098.279-.0098-.002Z"></path><path fill-rule="evenodd" fill="#201c1a" clip-rule="evenodd" d="M81.9738,110.352c0,0-.0423.093-.0734.138-.3155.425-.3367.471-.9889.29-.2829-.076-.3412-.183-.3374-.513-.0037-.074.0243-.15.0326-.231l1.3573.313.0098.003Z"></path><path fill-rule="evenodd" fill="#201c1a" clip-rule="evenodd" d="M85.4458,111.153c-.0227.099-.0454.197-.0681.295-.0651.192-.2104.283-.4018.26-.2724-.032-.5425-.074-.8224-.252.0257-.202.059-.391.0923-.58l1.2098.279-.0098-.002Z"></path><path fill-rule="evenodd" fill="#201c1a" clip-rule="evenodd" d="M78.3544,109.516c-.0432.187-.0863.374-.1514.566-.7089.064-1.0123-.327-1.2059-.879l1.3573.313Z"></path><path fill-rule="evenodd" fill="#201c1a" clip-rule="evenodd" d="M67.191,106.939c-.081.126-.1544.265-.2353.391-.0643.099-.1408.206-.2422.286-.1157.097-.2807.184-.4078.061-.0772-.07-.1339-.228-.1286-.34.0061-.206.0712-.398.1068-.597l.9048.209.0023-.01Z"></path><path fill-rule="evenodd" fill="#201c1a" clip-rule="evenodd" d="M62.2403,109.132c.0643.035.1407.063.1952.097.3639.218.3979.34.1671.712-.0665.108-.1135.222-.1876.319-.1196.159-.2807.184-.4638.079l.2793-1.21.0098.003Z"></path><path fill-rule="evenodd" fill="#201c1a" clip-rule="evenodd" d="M63.4239,106.069c-.0858.222-.2601.289-.5229.2l.0704-.305.4525.105Z"></path><path fill-rule="evenodd" fill="#201c1a" clip-rule="evenodd" d="M77.6232,113.356c-.0598.08-.112.171-.1793.239-.2785.308-.7143.311-.9988.018-.0174-.015-.0325-.039-.0476-.063-.1354-.176-.2686-.362-.3964-.527-.0265-.244.0779-.427.2421-.555.4026-.352.7688-.278,1.0305.114.1536.232.227.498.3495.774Z"></path><path fill-rule="evenodd" fill="#201c1a" clip-rule="evenodd" d="M74.395,118.454c-.3534.095-.6379.205-.9284.252-.3541.053-.5705-.132-.6923-.502.2036-.253.3996-.519.6107-.76.2641-.291.6174-.251.8315.078.0703.099.1142.223.1361.353.0326.173.0235.347.0424.579Z"></path><path fill-rule="evenodd" fill="#201c1a" clip-rule="evenodd" d="M78.8839,112.384c-.1362-.084-.1983-.129-.2626-.165-.4607-.292-.5447-.602-.2813-1.069.0757-.149.2164-.22.3783-.203.348.018.6439.128.886.38.2269.229.2095.619-.0788.79-.1937.121-.4131.174-.6416.267Z"></path><path fill-rule="evenodd" fill="#201c1a" clip-rule="evenodd" d="M77.0083,119.565c-.2534-.203-.4365-.443-.295-.741.1885-.413.3958-.862,1.0563-.761.1021.23.2149.505.3374.782-.1211.21-.2376.401-.3708.619-.2444.026-.491.063-.7279.101Z"></path><path fill-rule="evenodd" fill="#201c1a" clip-rule="evenodd" d="M77.9349,114.609c.18.073.3699.148.5553.243.1112.056.2179.133.3124.217.1468.127.2209.299.1483.479-.0749.19-.2187.364-.4487.373-.2323.019-.46.019-.6855.008-.174-.009-.3253-.117-.3306-.273-.0113-.355.0016-.725.3005-.988.0385-.032.0923-.04.1483-.059Z"></path><path fill-rule="evenodd" fill="#201c1a" clip-rule="evenodd" d="M82.5522,116.059c-.1067.193-.1749.353-.28.495-.1219.168-.3035.282-.5214.283-.2913.005-.578-.144-.6377-.333-.1014-.324-.0287-.639.2126-.832.1786-.145.3776-.244.6356-.195.317.063.4895.258.5909.582Z"></path><path fill-rule="evenodd" fill="#201c1a" clip-rule="evenodd" d="M67.226,121.461c.1051.128.2837.252.3132.393.062.315.127.662-.0584.971-.0855.146-.2338.205-.3911.169-.4328-.1-.7407-.337-.7626-.87.2535-.201.4237-.534.9087-.661l-.0098-.002Z"></path><path fill-rule="evenodd" fill="#201c1a" clip-rule="evenodd" d="M80.4997,122.526c.1006.417.2035.824.3139,1.243-.4132.309-.7998.188-1.1773.029-.1604-.068-.2232-.29-.1407-.468.0568-.111.143-.215.1998-.327.2149-.437.2149-.437.8043-.477Z"></path><path fill-rule="evenodd" fill="#201c1a" clip-rule="evenodd" d="M84.6014,119.837c.3117.041.5084.221.6552.482.0809.143.0983.292.0128.439-.0522.091-.1218.168-.1718.25-.1975.317-.3481.386-.6144.283-.3056-.112-.4622-.376-.3706-.728.0318-.138.0302-.221-.0114-.355-.0877-.248.0417-.405.2694-.404.0734-.004.1521.014.2232.021l.0076.012Z"></path><path fill-rule="evenodd" fill="#201c1a" clip-rule="evenodd" d="M77.9978,120.933c.3844-.319.8986-.452,1.5428-.4.093.54-.1083.918-.5865,1.149-.6015.048-.5901-.54-.9563-.749Z"></path><path fill-rule="evenodd" fill="#201c1a" clip-rule="evenodd" d="M64.3255,124.107c-.0817-.185-.1279-.299-.174-.414-.149-.386.0485-.703.4616-.743.0734-.003.1642.007.2164.05.2073.224.4146.448.5976.687.1052.128.0984.293.0053.426-.0931.134-.2391.184-.4063.145-.2262-.052-.4426-.102-.6984-.161l-.0022.01Z"></path><path fill-rule="evenodd" fill="#201c1a" clip-rule="evenodd" d="M81.0166,113.601c-.057.546-.3254.871-.8051.975-.062-.046-.1392-.115-.2209-.165-.2625-.165-.2716-.395-.1982-.668.0659-.285.274-.423.5274-.489.0878-.021.2036.016.2853.066.146.085.2852.2.4191.293l-.0076-.012Z"></path><path fill-rule="evenodd" fill="#201c1a" clip-rule="evenodd" d="M65.2001,110.851c.0514-.133.0772-.334.1929-.432.1831-.165.4109-.299.6439-.411.199-.099.3958-.054.5577.098.1271.122.1535.367.0544.572-.2006.42-.4434.529-.9254.418-.118-.027-.2436-.066-.3571-.113-.0492-.012-.0794-.06-.1566-.13l-.0098-.002Z"></path><path fill-rule="evenodd" fill="#201c1a" clip-rule="evenodd" d="M84.6702,114.424c-.0333.189-.053.319-.0802.437-.0227.099-.0651.192-.0878.291-.3337.099-.656.149-.9814.032-.1551-.046-.2769-.147-.3116-.31s.056-.288.1838-.393c.1862-.133.3625-.268.5993-.441.1929.106.4033.227.6703.372l.0076.012Z"></path><path fill-rule="evenodd" fill="#201c1a" clip-rule="evenodd" d="M78.7615,117.67c.087-.197.1665-.407.2656-.612s.2936-.285.5175-.222c.2754.063.6121.534.578.817-.0159.069-.0409.177-.0969.195-.2043.077-.4252.181-.6431.183-.2497.004-.5198-.037-.6211-.361Z"></path><path fill-rule="evenodd" fill="#201c1a" clip-rule="evenodd" d="M72.2843,116.423c-.1695-.298-.6643-.174-.7309-.604.6879-.69,1.0752-.663,1.6532.154-.1703.334-.4926.384-.9223.45Z"></path><path fill-rule="evenodd" fill="#201c1a" clip-rule="evenodd" d="M75.2568,110.458l.7967.184c.0356.071.0885.155.1173.255.0756.256.0877.518-.159.689-.2202.146-.4426.032-.6643-.04-.0688-.015-.1263-.081-.1884-.126-.3918-.277-.3941-.536-.0831-.806.0386-.033.0772-.066.1687-.148l.0121-.008Z"></path><path fill-rule="evenodd" fill="#201c1a" clip-rule="evenodd" d="M63.9246,108.163c.081-.126.1332-.218.193-.297.2194-.322.3511-.354.6923-.172.3783.202.4176.345.2163.724-.0522.091-.0923.175-.1347.269-.0356.064-.0636.141-.1014.215-.0999.029-.1899.06-.2898.088-.1438.04-.2648-.019-.3185-.146-.0968-.209-.1596-.43-.2572-.681Z"></path><path fill-rule="evenodd" fill="#201c1a" clip-rule="evenodd" d="M66.8488,116.992c-.2104.013-.3957.053-.5675.034-.2648-.019-.4297-.337-.3041-.567.14-.247.3148-.466.5819-.591.1748-.084.3465-.065.5122.025.1581.078.2482.316.1626.462-.1089.203-.2353.392-.395.634l.0099.003Z"></path><path fill-rule="evenodd" fill="#201c1a" clip-rule="evenodd" d="M76.1279,123.019c-.0598-.055-.2156-.143-.2618-.257-.065-.212-.0718-.452-.071-.68-.003-.166.2467-.305.4093-.247.2096.079.4267.171.634.26.1408.064.2406.304.1945.459-.1083.379-.4306.564-.905.465Z"></path><path fill-rule="evenodd" fill="#201c1a" clip-rule="evenodd" d="M74.0601,114.968c.0401-.353.0711-.667.1075-.959.2973-.211.5357-.166.808,0c.2081.131.2603.309.2883.502.0113.085-.0129.235-.0659.285-.1619.118-.339.212-.5236.294-.1945.079-.3972.105-.6045-.119l-.0098-.003Z"></path><path fill-rule="evenodd" fill="#201c1a" clip-rule="evenodd" d="M61.5269,123.574c-.2959.025-.4986-.084-.6416-.272-.1029-.138-.1452-.313-.2194-.486.1756-.177.3216-.361.5055-.484.2875-.213.5342-.115.6575.204.1717.423-.0334.727-.3043,1.048l.0023-.01Z"></path><path fill-rule="evenodd" fill="#201c1a" clip-rule="evenodd" d="M62.6699,119.611c-.6038.058-.9465-.342-1.386-.548-.028-.327.2194-.456.3458-.645.889.009.8307-.098.9593.781.0144.117.0386.237.0711.41l.0098.002Z"></path><path fill-rule="evenodd" fill="#201c1a" clip-rule="evenodd" d="M64.5293,113.845c.333-.41.6954-.409,1.1039-.159.0416.269.0832.537.1301.828-.0991.07-.193.162-.3072.208-.3405.129-.6045.016-.7354-.314-.0719-.183-.1293-.382-.1815-.56l-.0099-.003Z"></path><path fill-rule="evenodd" fill="#201c1a" clip-rule="evenodd" d="M68.5981,115.697c-.0976-.116-.2368-.231-.3056-.382-.0787-.153-.0968-.343-.1293-.517-.0522-.312.1982-.544.5031-.474.2656.061.4547.229.5909.447.053.085.0363.247-.0008.363-.0605.172-.2852.338-.6583.563Z"></path><path fill-rule="evenodd" fill="#201c1a" clip-rule="evenodd" d="M73.3636,121.127c.0733.266.1414.509.1966.719-.1642.397-.4608.515-.8671.525-.1165-.213-.2459-.461-.3881-.742.2073-.18.3398-.44.6099-.533.1241-.044.2845.024.4562.043l-.0075-.012Z"></path><path fill-rule="evenodd" fill="#201c1a" clip-rule="evenodd" d="M72.1804,110.546c-.7112.074-.7362-.491-1.004-.812.1847-.351.5426-.331.8096-.455.221-.105.482.111.4547.364-.0386.301-.0772.603-.2505.905l-.0098-.002Z"></path><path fill-rule="evenodd" fill="#201c1a" clip-rule="evenodd" d="M63.8563,111.152c.084.175.1626.328.239.49.2898.585.2216.745-.4419,1.017-.3087-.278-.5273-.588-.3888-1.053.0832-.271.1748-.488.5917-.454Z"></path><path fill-rule="evenodd" fill="#201c1a" clip-rule="evenodd" d="M68.7167,109.259c-.2422.421-.6099.398-.9579.38-.1642-.007-.3306-.273-.2572-.412.1733-.301.2596-.675.681-.795.4131.095.5001.436.5439.83l-.0098-.003Z"></path><path fill-rule="evenodd" fill="#201c1a" clip-rule="evenodd" d="M70.0195,111.829c-.2973.076-.5485.132-.7922.2-.1974-.087-.3079-.237-.2927-.482.0174-.255.1589-.419.3972-.509.1824-.072.3594-.165.5781-.26.1271.123.2421.253.3843.399-.059.122-.1059.235-.1528.348-.0424.094-.075.19-.112.306l-.0099-.002Z"></path><path fill-rule="evenodd" fill="#201c1a" clip-rule="evenodd" d="M67.1549,113.063c-.1566.006-.2565-.1-.2368-.23.0257-.202.1203-.387.171-.562.2354-.122.479-.19.6658-.012.1793.166.311.404.4131.634.0333.081-.0394.261-.1188.335-.2043.212-.485.261-.7468.274-.1763-.134-.1157-.307-.1672-.443.1135.047.2126.111.3208.136.0393.009.1309-.073.1445-.132.0114-.049-.0295-.142-.0718-.183-.0447-.031-.1453-.044-.1937-.013-.0727.045-.1347.134-.1945.214l.0144-.018Z"></path><path fill-rule="evenodd" fill="#201c1a" clip-rule="evenodd" d="M69.434,117.102c.1793-.373.5236-.429.8709-.452.2935-.015.491.207.4077.478-.0741.231-.2171.447-.3163.652-.3364-.009-.6564-.238-.96-.688l-.0023.01Z"></path><path fill-rule="evenodd" fill="#201c1a" clip-rule="evenodd" d="M82.7916,111.97c.3851.307.4933.601.295,1.011-.1029-.003-.2058-.006-.3011.003-.4308.011-.7909-.179-1.0804-.571.0235-.191.1445-.267.3216-.226.295.068.5523.076.7725-.205l-.0076-.012Z"></path><path fill-rule="evenodd" fill="#201c1a" clip-rule="evenodd" d="M63.5563,115.144c-.0568.246-.0825.447-.1476.639-.084.229-.3693.298-.5705.138-.2209-.165-.4297-.338-.6832-.541.227-.176.4608-.381.7272-.547.0847-.053.2542-.024.3578.02.1135.047.1914.158.3284.283l-.0121.008Z"></path><path fill-rule="evenodd" fill="#201c1a" clip-rule="evenodd" d="M70.9774,119.841c-.0257-.068-.0711-.141-.087-.207-.0953-.529.2656-.881.8013-.778.258.049.4184.521.2489.762-.1241.178-.2664.301-.507.266-.1498-.024-.3041-.029-.4683-.036l.0121-.007Z"></path><path fill-rule="evenodd" fill="#201c1a" clip-rule="evenodd" d="M63.9032,117.41c.3617-.31.6553-.325.9495-.03-.0159.204-.0197.4-.0454.601-.0394.26-.1763.405-.3746.411-.2519.014-.4305-.11-.4842-.371-.0378-.195-.0317-.401-.0574-.604l.0121-.007Z"></path><path fill-rule="evenodd" fill="#201c1a" clip-rule="evenodd" d="M67.6953,117.902c.4025.186.5598.492.5969.915-.3103.177-.5426.465-.9678.377-.0574-.469-.0922-.902.3732-1.302l-.0023.01Z"></path><path fill-rule="evenodd" fill="#201c1a" clip-rule="evenodd" d="M71.0514,112.968c.1551.316.2693.539.3911.775-.1234.354-.4086.423-.7249.402-.3261-.024-.4819-.246-.581-.58.0772-.065.1824-.206.2633-.198.2943.027.4298-.201.6417-.401l.0098.002Z"></path><path fill-rule="evenodd" fill="#201c1a" clip-rule="evenodd" d="M76.5788,116.399c-.0152.111-.0326.231-.0402.354-.4499.214-.8527.238-1.2083.073-.0938-.312.1068-.462.3322-.586.3201-.175.3889-.159.9163.159Z"></path><path fill-rule="evenodd" fill="#201c1a" clip-rule="evenodd" d="M72.5193,112.624c-.0235-.078-.0537-.127-.0545-.168.0295-.128.0568-.246.084-.364.0507-.04.084-.095.1181-.108.236-.08.4698-.15.7596-.239.0099.002.0984.023.1483.076.2678.321.2383.583-.109.741-.311.136-.6288.166-.9465.062Z"></path><path fill-rule="evenodd" fill="#201c1a" clip-rule="evenodd" d="M63.5595,120.874c.2048.13.3425.341.4131.634-.1582.326-.4132.443-.7846.347-.4063-.529-.3972-.568.3715-.981Z"></path><path fill-rule="evenodd" fill="#201c1a" clip-rule="evenodd" d="M66.1977,120.125c-.2785.444-.7075.283-1.0918.287-.1581-.347-.1475-.438.0628-.586.0628-.048.1234-.086.1937-.121.42-.204.6053-.109.8376.411l-.0023.009Z"></path><path fill-rule="evenodd" fill="#201c1a" clip-rule="evenodd" d="M68.6591,120.683c.5962-.473.6795-.475,1.0706.03-.1324.259-.3193.486-.6523.626-.2307-.167-.3404-.41-.4259-.668l.0076.012Z"></path><path fill-rule="evenodd" fill="#201c1a" clip-rule="evenodd" d="M71.0004,122.343c.1811.263.2549.511.2216.745-.2587.044-.5372.083-.8081.135-.0196-.005-.0491-.012-.118-.028.0031-.237.0061-.475-.0014-.756.2466-.036.4615-.07.6983-.108l.0076.012Z"></path><path fill-rule="evenodd" fill="#201c1a" clip-rule="evenodd" d="M82.1022,121.642c.252-.014.4721-.025.746-.045-.0635.276-.0863.509-.1657.718-.056.153-.1892.236-.3708.215-.1914-.024-.3556-.165-.3442-.349.0091-.174.0795-.344.1249-.541l.0098.002Z"></path><path fill-rule="evenodd" fill="#201c1a" clip-rule="evenodd" d="M82.7682,118.533c.2444-.161.4283-.285.6364-.423.2602.174.3495.371.2837.656-.0364.157-.1173.284-.2929.326-.1634.035-.3064-.019-.3995-.154-.0703-.099-.1263-.216-.2375-.407l.0098.002Z"></path><path fill-rule="evenodd" fill="#201c1a" clip-rule="evenodd" d="M81.3465,120.339c-.2996-.049-.572-.081-.8376-.142-.1377-.032-.1838-.146-.1187-.338.1967.045.3888.11.5697.09.149-.017.2958-.16.4411-.25.0555.178.038.388-.0523.63l-.0022.01Z"></path><path fill-rule="evenodd" fill="#201c1a" clip-rule="evenodd" d="M75.3172,119.755c.1967.18.3177.374.152.688-.2868-.015-.5539-.025-.7589-.258.23-.279.2202-.281.6069-.43Z"></path><path fill-rule="evenodd" fill="#201c1a" clip-rule="evenodd" d="M80.9184,119.411c-.1052.007-.1907.018-.2739.02-.0197-.005-.053-.085-.0439-.124.0545-.102.1445-.133.2558-.076.0272.017.0332.08.062.18Z"></path></g><mask width="400%" height="400%" y="-150%" x="-150%" id="eeluDoT6dng157"><path stroke="#fff" fill="#fff" d="M67.3811,115.151c-2.3019-2.009-3.5414-10.51-3.461-12.951-.6789,3.555-3.4169,12.233-2.8732,15.199.2166,1.181.9074,1.985,3.982,2.975c2.4597.792,16.7872,1.908,19.3566,1.943-1.7154-.083-6.3365-1.441-8.9596-2.426-1.6353-.613-5.7428-2.731-8.0448-4.74Z"></path></mask></g><g style="offset-path:path('M73.826897,76.993857C80.307273,75.771601,83.288937,77.890188,87.312185,79.414173C83.558676,79.656808,77.487825,79.622288,73.826897,76.993857Q83.288937,77.890188,87.312185,79.414173L73.826897,76.993857');offset-rotate:0deg" id="eeluDoT6dng162_to"><g transform="rotate(-19.041669)" id="eeluDoT6dng162_tr"><g transform="translate(-85.4556,-76.9926)"><path fill="#fff" d="M87.2939,74.1687l-2.2204-.6116-1.1301,4.1027l2.2205.6116l1.13-4.1027Z"></path><path stroke-linejoin="round" stroke-linecap="round" stroke="#201c1a" fill="none" d="M87.2939,74.1687l-2.2204-.6116-1.1301,4.1027l2.2205.6116l1.13-4.1027Z"></path><path stroke-linejoin="round" stroke-linecap="round" stroke="#201c1a" fill="none" d="M78.1851,102.621c-2.4404-.671-5.8265-2.7908-4.5148-8.3885c1.1592-4.9418,5.1402-10.8903,10.0057-16.6558"></path><path stroke-linejoin="round" stroke-linecap="round" stroke="#201c1a" fill="none" d="M78.1851,102.622c-1.4185-.397-3.386-2.075-1.9828-7.6419c1.2355-4.9265,4.4233-11.1344,8.0229-17.2507"></path><path stroke-linejoin="round" stroke-linecap="round" stroke="#201c1a" fill="none" d="M78.1857,102.623c-.3966-.107-.9457-1.357.5491-6.9095c1.3117-4.896,3.7216-11.3784,6.04-17.8455"></path><path stroke-linejoin="round" stroke-linecap="round" stroke="#201c1a" fill="none" d="M78.186,102.62c2.4405.686,6.4366.61,8.1907-4.8659c1.5405-4.8351,1.205-11.9886,0-19.4318"></path><path stroke-linejoin="round" stroke-linecap="round" stroke="#201c1a" fill="none" d="M78.186,102.619c1.4185.397,3.9657-.03,5.6435-5.5364c1.4643-4.8504,1.9371-11.8208,2.0134-18.9133"></path><path stroke-linejoin="round" stroke-linecap="round" stroke="#201c1a" fill="none" d="M78.186,102.619c.3966.107,1.51-.671,3.0811-6.208c1.388-4.8808,2.6692-11.6682,4.0114-18.3946"></path><path fill="#fff" d="M94.1079,42.0059c-.5338.5491-.8542,1.2507-1.0524,1.9523-2.6235,9.5024-5.6893,18.8675-8.3737,28.4614-.1983.7169.3965,1.6473,1.1744,2.0133.5186.2441,1.5253.0001,1.9066-.366s.5491-.8694.7169-1.3422c2.9742-9.0448,5.6129-18.0286,8.5872-27.0734.3051-.9.8236-2.41.183-3.3404-.7016-1.0219-2.3794-1.1287-3.1573-.305h.0153Z"></path><path stroke-linejoin="round" stroke-linecap="round" stroke="#201c1a" fill="none" d="M94.0623,42.3094c-.5338.5491-.8541,1.2354-1.0524,1.937-2.6235,9.4109-5.674,18.6998-8.3432,28.2021-.1983.7017.4118,1.6321,1.1744,1.9981.5186.2441,1.5253,0,1.9066-.366.3813-.3661.5491-.8542.7169-1.327c2.959-8.9533,5.5977-17.8608,8.5567-26.8141.2898-.8999.8237-2.3947.1831-3.3098-.7017-1.022-2.3795-1.1135-3.1573-.3051l.0152-.0152Z"></path><path stroke-linejoin="round" stroke-linecap="round" stroke="#201c1a" fill="none" d="M70.926,107.898c1.9829,1.419,4.225,2.486,6.5739,3.142"></path><path stroke-linejoin="round" stroke-linecap="round" stroke="#201c1a" fill="none" d="M68.9424,99.7202c.8846,3.5388,6.2841,5.8718,8.877,6.3608"></path></g></g></g><path stroke-linejoin="round" stroke-linecap="round" stroke="#201c1a" fill="none" d="M91.7003,79.083c-.183.4271-.7016.6102-1.1592.6712-1.327.2135-2.6844.0915-4.0267-.061-4.53-.4881-9.0448-1.1593-13.5138-2.0287-2.2421-.427-4.469-.9151-6.6806-1.4337-.6102-.1373-4.3775-.7626-4.8046-2.0286"></path></g></g></g><g transform="translate(51.961901,60.49345) scale(0,0)" id="eeluDoT6dng176_ts"><path stroke-linejoin="round" stroke-linecap="round" stroke="#201c1a" fill="#fffefb" transform="translate(-67.546,-54.824799)" d="M75.6215,53.2037l-5.9771,3.015-.4773,6.6816-3.015-5.9771-6.6816-.4772l5.977-3.0151.4773-6.6816l3.0151,5.9771l6.6816.4773Z"></path></g><g transform="translate(105.090942,57.799062) rotate(39.533116) scale(0,0)" id="eeluDoT6dng177_ts"><path stroke-linejoin="round" stroke-linecap="round" stroke="#201c1a" fill="#fffefb" transform="translate(-67.546,-54.824799)" d="M75.6215,53.2037l-5.9771,3.015-.4773,6.6816-3.015-5.9771-6.6816-.4772l5.977-3.0151.4773-6.6816l3.0151,5.9771l6.6816.4773Z"></path></g></svg>
